Coordinates
version=1
nRows=10
nColumns=22
inDegrees=yes

Units are S.I. units (second, meters, Newtons, ...)
If the header above contains a line with 'inDegrees', this indicates whether rotational values are in degrees (yes) or radians (no).

endheader
time	pelvis_tilt	pelvis_list	pelvis_rotation	pelvis_tx	pelvis_ty	pelvis_tz	hip_flexion_r	hip_adduction_r	hip_rotation_r	knee_angle_r	ankle_angle_r	subtalar_angle_r	hip_flexion_l	hip_adduction_l	hip_rotation_l	knee_angle_l	ankle_angle_l	subtalar_angle_l	lumbar_extension	lumbar_bending	lumbar_rotation
      1.40000000	     -1.16813162	      0.06458182	    -26.87233405	     -1.00347016	      0.90455021	     -0.39425419	     -0.84100985	     -1.61743619	     -1.11618550	     -9.08459942	     17.90553839	      2.76499254	      3.09746342	     -0.69392169	    -10.32178647	    -17.96656298	     18.17126903	     -3.90600723	     -5.83883135	     -2.54901506	      4.96330732
      1.41000000	     -1.13756359	      0.15087214	    -26.81638463	     -1.00233517	      0.90436588	     -0.39574776	     -0.28272086	     -1.82322989	     -1.05255065	    -10.13221744	     18.14368859	      2.69689204	      3.09625165	     -0.47015524	    -10.19799726	    -17.96906166	     18.19330023	     -3.86871758	     -6.00814276	     -2.62705376	      4.97223162
      1.42000000	     -1.18968155	      0.24456750	    -26.77841769	     -1.00131299	      0.90406546	     -0.39726837	      0.45282715	     -1.98894769	     -0.90282931	    -11.32805518	     18.33497897	      2.56649253	      3.20908737	     -0.28412482	    -10.06955071	    -18.01911158	     18.16013832	     -3.82421458	     -6.10844515	     -2.67214808	      4.98409775
      1.43000000	     -1.19326633	      0.32768727	    -26.77256711	     -1.00031105	      0.90382439	     -0.39876234	      1.21442035	     -2.16481095	     -0.72498410	    -12.65391943	     18.50452278	      2.42325419	      3.26084295	     -0.08797497	    -10.00868621	    -18.05907284	     18.15956139	     -3.77347309	     -6.28102637	     -2.73476084	      4.98392699
      1.44000000	     -1.13162984	      0.39418498	    -26.79516025	     -0.99932295	      0.90367650	     -0.40022930	      1.97989133	     -2.35226957	     -0.53565727	    -14.10314973	     18.65074644	      2.30999533	      3.22575263	      0.12301631	    -10.00658193	    -18.07453676	     18.19166276	     -3.72894209	     -6.54704226	     -2.81576725	      4.96168168
      1.45000000	     -1.14028304	      0.45074752	    -26.84511039	     -0.99849324	      0.90345144	     -0.40168433	      2.91076726	     -2.47668545	     -0.25832772	    -15.70867486	     18.73243166	      2.12914500	      3.29690663	      0.28353949	     -9.99601007	    -18.15977176	     18.16355758	     -3.69374581	     -6.77122685	     -2.85832717	      4.99006143
      1.46000000	     -1.11190832	      0.47359092	    -26.91530995	     -0.99765766	      0.90331819	     -0.40308516	      3.86413932	     -2.57791757	     -0.00907279	    -17.44087145	     18.72374550	      1.92154912	      3.29454413	      0.42596149	    -10.05319644	    -18.20991175	     18.17698086	     -3.66828534	     -7.05983421	     -2.88457794	      4.97722653
      1.47000000	     -1.01387187	      0.47568140	    -27.01372911	     -0.99685086	      0.90331285	     -0.40442563	      4.81597054	     -2.68174414	      0.24308553	    -19.29702069	     18.68829787	      1.76958716	      3.19910667	      0.58587021	    -10.12201668	    -18.23522456	     18.18560818	     -3.64895523	     -7.44742215	     -2.93254680	      4.97593398
      1.48000000	     -0.93381785	      0.45217164	    -27.13153198	     -0.99606585	      0.90333579	     -0.40569097	      5.85110571	     -2.73861058	      0.47596279	    -21.28097500	     18.54828164	      1.59661142	      3.09853198	      0.70943839	    -10.22278149	    -18.24721661	     18.18341961	     -3.64126724	     -7.83549398	     -2.94673995	      4.97315891
      1.49000000	     -0.83652645	      0.39953550	    -27.26470287	     -0.99527336	      0.90343821	     -0.40688299	      6.92161677	     -2.76837035	      0.66657371	    -23.37339446	     18.31636704	      1.42149422	      2.94723013	      0.81511470	    -10.33625798	    -18.22874518	     18.17894377	     -3.64295837	     -8.26193221	     -2.94123226	      4.96378863
